<mxfile host="app.diagrams.net" modified="2023-05-05T07:28:04.092Z" agent="Mozilla/5.0 (Windows NT 10.0; Win64; x64) AppleWebKit/537.36 (KHTML, like Gecko) Chrome/113.0.0.0 Safari/537.36" version="21.2.3" etag="47CHLt1BAuskjIafu0Bs" type="github">
  <diagram name="Halaman-1" id="5vqjGu1LbWqwoTlpNYin">
    <mxGraphModel>
      <root>
        <mxCell id="0" />
        <mxCell id="1" parent="0" />
      </root>
    </mxGraphModel>
  </diagram>
</mxfile>
